<svg width="36" height="36" viewBox="0 0 36 36" fill="none" xmlns="http://www.w3.org/2000/svg">
<rect width="36" height="36" rx="8" fill="#FFF8F0"/>
<path d="M9.59082 11.4545C9.59082 10.4252 10.4252 9.59082 11.4545 9.59082H26.409V13.3181H11.4545C10.4252 13.3181 9.59082 12.4837 9.59082 11.4545Z" fill="#F2FBF6" stroke="#F08700" stroke-width="2"/>
<path d="M9.40918 11.4092C9.40918 10.3046 10.3046 9.40918 11.4092 9.40918H27.4092V13.5001H11.4092C10.3046 13.5001 9.40918 12.6047 9.40918 11.5001V11.4092Z" fill="white"/>
<path d="M11.6365 17.7956C11.6365 16.4275 12.7456 15.3184 14.1137 15.3184H28.4547V20.2729H14.1137C12.7456 20.2729 11.6365 19.1638 11.6365 17.7956Z" stroke="#FFCD1F" stroke-width="2"/>
<path d="M11.4546 17.1362C11.4546 16.0317 12.35 15.1362 13.4546 15.1362H29.4546V20.4544H13.4546C12.35 20.4544 11.4546 19.559 11.4546 18.4544V17.1362Z" fill="white"/>
<path d="M7.54541 24.5457C7.54541 23.2905 8.56294 22.2729 9.81814 22.2729H26V26.8184H9.81814C8.56295 26.8184 7.54541 25.8009 7.54541 24.5457Z" stroke="#3B4C9B" stroke-width="2"/>
<path d="M7.36353 24.0908C7.36353 22.9863 8.25896 22.0908 9.36353 22.0908H26.9999V26.9999H9.36353C8.25896 26.9999 7.36353 26.1045 7.36353 24.9999V24.0908Z" fill="white"/>
</svg>
